<?xml version="1.0" encoding="UTF-8" standalone="no"?>
<!DOCTYPE svg PUBLIC "-//W3C//DTD SVG 1.1//EN" "http://www.w3.org/Graphics/SVG/1.1/DTD/svg11.dtd">
<!-- Created with Vectornator (http://vectornator.io/) -->
<svg height="100%" stroke-miterlimit="10" style="fill-rule:nonzero;clip-rule:evenodd;stroke-linecap:round;stroke-linejoin:round;" version="1.1" viewBox="0 0 180 180" width="100%" xml:space="preserve" xmlns="http://www.w3.org/2000/svg" xmlns:vectornator="http://vectornator.io" xmlns:xlink="http://www.w3.org/1999/xlink">
<defs>
<path d="M142.699 16.2979C138.419 33.7639 112.622 35.8263 94.3366 60.0278C82.618 75.5388 86.9389 90.0662 95.3267 94.4061C104.6 99.2042 115.42 95.6711 128.189 77.694C139.19 62.2075 147.962 30.598 142.699 16.2979Z" id="Fill"/>
<path d="M166.152 156.439C148.987 151.078 148.537 125.202 125.523 105.444C110.773 92.7808 96.0044 96.1874 91.1499 104.288C85.7829 113.244 88.6344 124.264 105.78 138.129C120.551 150.074 151.552 160.8 166.152 156.439Z" id="Fill_2"/>
<path d="M0.816114 109.546C18.5552 112.496 30.6181 89.5997 60.0674 82.3335C78.9415 77.6768 90.5899 87.3737 91.2726 96.793C92.0274 107.207 84.5157 115.759 62.9611 120.409C44.3923 124.415 11.8842 120.019 0.816114 109.546Z" id="Fill_3"/>
</defs>
<g id="Layer-1" vectornator:layerName="Layer 1">
<g opacity="1">
<path d="M142.699 16.2979C138.419 33.7639 112.622 35.8263 94.3366 60.0278C82.618 75.5388 86.9389 90.0662 95.3267 94.4061C104.6 99.2042 115.42 95.6711 128.189 77.694C139.19 62.2075 147.962 30.598 142.699 16.2979Z" fill="none" opacity="1" stroke="#ffffff" stroke-linecap="butt" stroke-linejoin="round" stroke-width="1.20481"/>
<g opacity="1">
<use fill="none" opacity="1" stroke="#ffffff" stroke-linecap="butt" stroke-linejoin="round" stroke-width="1.20481" xlink:href="#Fill"/>
<clipPath id="ClipPath">
<use xlink:href="#Fill"/>
</clipPath>
<g clip-path="url(#ClipPath)">
<path d="M135.016 36.2444C134.123 38.6721 133.017 40.8912 131.616 43.0061C129.54 46.1402 127.005 48.9477 124.24 51.6761C122.283 53.6102 120.179 55.4442 118.101 57.3564C113.644 61.4634 109.207 65.8081 105.858 71.4781C101.793 78.364 99.3565 87.1833 100.296 99.7576C100.397 101.371 99.1689 102.763 97.5555 102.863C95.9436 102.964 94.5518 101.736 94.4514 100.123C93.7453 86.102 96.7531 76.3454 101.504 68.8184C104.75 63.6751 108.78 59.547 113.05 55.8676C115.922 53.3931 118.847 51.0709 121.747 48.8228C124.701 46.534 127.568 44.3277 130.157 41.7976C131.924 40.0698 133.579 38.3174 135.016 36.2444Z" fill="none" opacity="1" stroke="#ffffff" stroke-linecap="butt" stroke-linejoin="round" stroke-width="1.20481"/>
<path d="M109.763 50.3273C109.93 50.7384 109.971 51.0192 109.913 51.503C109.837 52.1458 109.549 52.7322 109.137 53.4488C108.888 53.8811 108.552 54.3021 108.223 54.7427C107.632 55.5336 107.052 56.3315 106.726 57.1816C106.362 58.1325 106.844 59.9301 107.597 61.0272L103.432 65.8003C102.553 63.8025 100.786 62.1929 102.307 57.5499C102.692 56.3765 103.681 55.4494 104.651 54.4933C105.23 53.9217 105.797 53.3719 106.444 52.8551C107.12 52.3153 107.74 51.9452 108.393 51.4269C108.918 51.0107 109.296 50.7833 109.763 50.3273Z" fill="none" opacity="1" stroke="#ffffff" stroke-linecap="butt" stroke-linejoin="round" stroke-width="1.20481"/>
<path d="M129.775 58.8145C129.345 59.289 129.296 59.5759 128.948 60.0967C128.55 60.6944 128.413 61.2079 127.973 61.8101C127.57 62.3613 127.076 62.8136 126.555 63.2896C125.656 64.1119 124.578 64.7171 123.35 65.1794C122.398 65.5374 121.33 65.7231 120.09 65.6838C118.969 65.6482 112.913 65.492 111.471 65.0491C109.963 64.4691 113.133 62.4005 114.293 61.0076C115.328 59.7659 116.858 58.9389 118.366 59.5189C119.856 60.2133 120.969 60.4472 121.955 60.2716C123.415 60.0121 124.517 59.1962 125.767 58.7294C126.163 58.5814 126.481 58.4923 126.892 58.461C128.061 58.372 128.675 58.3924 129.775 58.8145Z" fill="none" opacity="1" stroke="#ffffff" stroke-linecap="butt" stroke-linejoin="round" stroke-width="1.20481"/>
<path d="M93.8374 66.2913C94.3222 66.5031 94.5094 66.6374 94.813 66.9829C95.1965 67.4198 95.3199 67.8485 95.3723 68.465C95.4514 69.3979 95.0911 70.4531 95.4124 71.4028C95.6324 72.0527 96.2684 72.5653 97.4859 73.0365C98.54 73.5426 98.5111 74.8136 97.4211 75.8733C96.331 76.9327 94.5904 77.3818 93.5363 76.8756C91.5447 75.7072 90.7482 74.4574 90.663 73.118C90.6052 72.21 90.7399 71.3072 91.1267 70.3911C91.3522 69.8576 91.5681 69.3495 91.9029 68.84C92.265 68.2893 92.6664 67.934 93.0371 67.4068C93.3551 66.9547 93.5926 66.7627 93.8374 66.2913Z" fill="none" opacity="1" stroke="#ffffff" stroke-linecap="butt" stroke-linejoin="round" stroke-width="1.20481"/>
<path d="M117.473 72.6118C116.987 73.0439 116.887 73.3426 116.48 73.8311C116.006 74.4005 115.793 74.9196 115.279 75.4921C114.804 76.0215 114.247 76.4445 113.661 76.8875C112.654 77.6477 111.488 78.1774 110.179 78.5378C108.247 79.0694 105.939 78.9266 102.899 77.6817L105.471 72.4203C106.99 73.2915 108.155 73.6258 109.219 73.5271C110.773 73.3826 111.992 72.5828 113.351 72.23C114.25 71.9971 114.935 71.9126 115.817 72.0565C116.514 72.17 116.834 72.276 117.473 72.6118Z" fill="none" opacity="1" stroke="#ffffff" stroke-linecap="butt" stroke-linejoin="round" stroke-width="1.20481"/>
</g>
</g>
<path d="M142.699 16.2979C138.419 33.7639 112.622 35.8263 94.3366 60.0278C82.618 75.5388 86.9389 90.0662 95.3267 94.4061C104.6 99.2042 115.42 95.6711 128.189 77.694C139.19 62.2075 147.962 30.598 142.699 16.2979Z" fill="none" opacity="1" stroke="#ffffff" stroke-linecap="butt" stroke-linejoin="round" stroke-width="1.20481"/>
</g>
<g opacity="1">
<path d="M166.152 156.439C148.987 151.078 148.537 125.202 125.523 105.444C110.773 92.7808 96.0044 96.1874 91.1499 104.288C85.7829 113.244 88.6344 124.264 105.78 138.129C120.551 150.074 151.552 160.8 166.152 156.439Z" fill="none" opacity="1" stroke="#ffffff" stroke-linecap="butt" stroke-linejoin="round" stroke-width="1.20481"/>
<g opacity="1">
<use fill="none" opacity="1" stroke="#ffffff" stroke-linecap="butt" stroke-linejoin="round" stroke-width="1.20481" xlink:href="#Fill_2"/>
<clipPath id="ClipPath_2">
<use xlink:href="#Fill_2"/>
</clipPath>
<g clip-path="url(#ClipPath_2)">
<path d="M146.724 147.527C144.356 146.484 142.21 145.242 140.187 143.712C137.188 141.444 134.545 138.739 131.994 135.81C130.185 133.736 128.486 131.522 126.707 129.329C122.886 124.624 118.827 119.925 113.377 116.229C106.758 111.743 98.1074 108.761 85.499 108.914C83.882 108.915 82.5699 107.602 82.5708 105.985C82.5705 104.37 83.883 103.058 85.4988 103.058C99.5364 103.228 109.087 106.838 116.303 112.049C121.233 115.61 125.102 119.889 128.508 124.38C130.799 127.401 132.934 130.465 134.997 133.499C137.097 136.59 139.12 139.589 141.484 142.332C143.098 144.202 144.744 145.963 146.724 147.527Z" fill="none" opacity="1" stroke="#ffffff" stroke-linecap="butt" stroke-linejoin="round" stroke-width="1.20481"/>
<path d="M134.243 121.445C133.822 121.586 133.539 121.609 133.06 121.521C132.423 121.405 131.856 121.081 131.166 120.625C130.75 120.35 130.351 119.988 129.932 119.632C129.179 118.994 128.419 118.364 127.591 117.986C126.665 117.564 124.841 117.933 123.699 118.616L119.195 114.162C121.243 113.409 122.96 111.746 127.499 113.554C128.646 114.011 129.51 115.055 130.404 116.083C130.938 116.697 131.451 117.297 131.927 117.975C132.423 118.683 132.754 119.325 133.231 120.01C133.613 120.559 133.817 120.95 134.243 121.445Z" fill="none" opacity="1" stroke="#ffffff" stroke-linecap="butt" stroke-linejoin="round" stroke-width="1.20481"/>
<path d="M124.524 140.889C124.077 140.431 123.794 140.363 123.296 139.984C122.724 139.549 122.22 139.381 121.647 138.904C121.122 138.467 120.701 137.946 120.259 137.396C119.494 136.448 118.957 135.334 118.572 134.079C118.274 133.107 118.156 132.029 118.272 130.795C118.378 129.678 118.911 123.644 119.443 122.232C120.116 120.762 121.983 124.056 123.301 125.301C124.476 126.41 125.205 127.989 124.533 129.459C123.747 130.902 123.444 131.998 123.558 132.993C123.726 134.467 124.471 135.618 124.859 136.894C124.982 137.298 125.051 137.621 125.057 138.034C125.073 139.206 125.014 139.817 124.524 140.889Z" fill="none" opacity="1" stroke="#ffffff" stroke-linecap="butt" stroke-linejoin="round" stroke-width="1.20481"/>
<path d="M119.303 104.555C119.061 105.026 118.916 105.204 118.552 105.486C118.092 105.841 117.656 105.937 117.038 105.951C116.102 105.972 115.071 105.547 114.103 105.808C113.441 105.987 112.889 106.59 112.343 107.776C111.772 108.796 110.506 108.688 109.516 107.534C108.527 106.38 108.187 104.615 108.758 103.595C110.048 101.68 111.345 100.963 112.687 100.961C113.597 100.96 114.49 101.151 115.38 101.594C115.898 101.852 116.392 102.099 116.88 102.465C117.407 102.861 117.736 103.284 118.239 103.687C118.671 104.032 118.848 104.281 119.303 104.555Z" fill="none" opacity="1" stroke="#ffffff" stroke-linecap="butt" stroke-linejoin="round" stroke-width="1.20481"/>
<path d="M111.521 127.75C111.12 127.239 110.828 127.12 110.366 126.683C109.827 126.175 109.322 125.929 108.783 125.381C108.284 124.874 107.897 124.291 107.491 123.679C106.795 122.627 106.339 121.43 106.061 120.101C105.651 118.14 105.938 115.845 107.37 112.889L112.46 115.784C111.496 117.245 111.09 118.388 111.122 119.455C111.169 121.015 111.892 122.282 112.159 123.661C112.335 124.572 112.377 125.261 112.178 126.132C112.022 126.821 111.896 127.133 111.521 127.75Z" fill="none" opacity="1" stroke="#ffffff" stroke-linecap="butt" stroke-linejoin="round" stroke-width="1.20481"/>
</g>
</g>
<path d="M166.152 156.439C148.987 151.078 148.537 125.202 125.523 105.444C110.773 92.7808 96.0044 96.1874 91.1499 104.288C85.7829 113.244 88.6344 124.264 105.78 138.129C120.551 150.074 151.552 160.8 166.152 156.439Z" fill="none" opacity="1" stroke="#ffffff" stroke-linecap="butt" stroke-linejoin="round" stroke-width="1.20481"/>
</g>
<g opacity="1">
<path d="M0.816114 109.546C18.5552 112.496 30.6181 89.5997 60.0674 82.3335C78.9415 77.6768 90.5899 87.3737 91.2726 96.793C92.0274 107.207 84.5157 115.759 62.9611 120.409C44.3923 124.415 11.8842 120.019 0.816114 109.546Z" fill="none" opacity="1" stroke="#ffffff" stroke-linecap="butt" stroke-linejoin="round" stroke-width="1.20481"/>
<g opacity="1">
<use fill="none" opacity="1" stroke="#ffffff" stroke-linecap="butt" stroke-linejoin="round" stroke-width="1.20481" xlink:href="#Fill_3"/>
<clipPath id="ClipPath_3">
<use xlink:href="#Fill_3"/>
</clipPath>
<g clip-path="url(#ClipPath_3)">
<path d="M22.176 110.347C24.7593 110.482 27.2346 110.34 29.7303 109.887C33.4293 109.213 37.0087 107.99 40.6058 106.525C43.1547 105.488 45.6695 104.277 48.2457 103.122C53.7772 100.644 59.519 98.2781 66.0498 97.4353C73.9804 96.4134 83.0462 97.6498 94.2326 103.469C95.6755 104.199 97.4385 103.618 98.1663 102.174C98.8944 100.733 98.3142 98.9696 96.8717 98.2417C84.2641 92.0667 74.1117 90.9856 65.3216 92.3852C59.315 93.3418 53.933 95.4179 48.8685 97.892C45.4621 99.557 42.175 101.33 38.9662 103.109C35.6982 104.922 32.5406 106.687 29.1947 108.069C26.9105 109.012 24.6477 109.842 22.176 110.347Z" fill="none" opacity="1" stroke="#ffffff" stroke-linecap="butt" stroke-linejoin="round" stroke-width="1.20481"/>
<path d="M45.0722 92.6876C45.3842 93.0031 45.6261 93.1513 46.0935 93.2889C46.7144 93.4721 47.3668 93.4387 48.1876 93.3427C48.6831 93.2843 49.2026 93.1411 49.7372 93.0125C50.6967 92.7816 51.6589 92.5623 52.5685 92.5981C53.5861 92.638 55.0481 93.7898 55.7593 94.9146L61.7878 92.9678C60.2981 91.3727 59.5153 89.1141 54.6485 88.6825C53.4185 88.5734 52.1766 89.1169 50.9158 89.6312C50.1619 89.9388 49.4332 90.243 48.7033 90.6341C47.9408 91.0424 47.3563 91.4665 46.6225 91.8625C46.0333 92.1804 45.6754 92.438 45.0722 92.6876Z" fill="none" opacity="1" stroke="#ffffff" stroke-linecap="butt" stroke-linejoin="round" stroke-width="1.20481"/>
<path d="M44.9849 114.425C45.5903 114.217 45.8735 114.285 46.4891 114.171C47.1955 114.04 47.7212 114.117 48.4483 113.95C49.1136 113.796 49.7241 113.52 50.3667 113.23C51.4768 112.728 52.4579 111.975 53.3668 111.029C54.071 110.295 54.6627 109.386 55.1152 108.232C55.5244 107.187 57.7675 101.56 57.929 100.06C57.9904 98.445 54.8396 100.544 53.1022 101.061C51.5534 101.522 50.1901 102.603 50.1287 104.218C50.1797 105.86 49.9563 106.975 49.4062 107.812C48.5921 109.052 47.4079 109.743 46.4862 110.708C46.1943 111.013 45.9872 111.27 45.796 111.636C45.2536 112.676 45.0306 113.247 44.9849 114.425Z" fill="none" opacity="1" stroke="#ffffff" stroke-linecap="butt" stroke-linejoin="round" stroke-width="1.20481"/>
<path d="M66.0206 84.3433C66.0242 84.8723 66.0738 85.0973 66.2718 85.5125C66.5221 86.0372 66.8675 86.3195 67.4134 86.6107C68.2396 87.051 69.3514 87.1358 70.0976 87.8054C70.6082 88.2637 70.8286 89.0503 70.7818 90.355C70.8315 91.5232 72.011 91.9976 73.4145 91.4135C74.8178 90.8292 75.9166 89.4065 75.8669 88.2382C75.578 85.9473 74.7432 84.7227 73.5459 84.1164C72.7341 83.7054 71.8513 83.4734 70.8569 83.4678C70.2778 83.4649 69.7256 83.463 69.1255 83.5699C68.4766 83.6856 67.9918 83.9145 67.3613 84.0474C66.8204 84.1615 66.5504 84.3041 66.0206 84.3433Z" fill="none" opacity="1" stroke="#ffffff" stroke-linecap="butt" stroke-linejoin="round" stroke-width="1.20481"/>
<path d="M62.5141 108.556C63.1026 108.28 63.4167 108.306 64.026 108.125C64.7361 107.913 65.2972 107.922 66.0258 107.676C66.6996 107.448 67.308 107.102 67.946 106.738C69.0414 106.113 69.9878 105.25 70.8351 104.189C72.0849 102.623 72.8637 100.445 72.9176 97.1606L67.0682 97.451C67.2704 99.19 67.1182 100.393 66.6084 101.331C65.8632 102.703 64.6475 103.508 63.7875 104.618C63.2195 105.352 62.8716 105.949 62.6563 106.816C62.4857 107.501 62.4573 107.837 62.5141 108.556Z" fill="none" opacity="1" stroke="#ffffff" stroke-linecap="butt" stroke-linejoin="round" stroke-width="1.20481"/>
</g>
</g>
<path d="M0.816114 109.546C18.5552 112.496 30.6181 89.5997 60.0674 82.3335C78.9415 77.6768 90.5899 87.3737 91.2726 96.793C92.0274 107.207 84.5157 115.759 62.9611 120.409C44.3923 124.415 11.8842 120.019 0.816114 109.546Z" fill="none" opacity="1" stroke="#ffffff" stroke-linecap="butt" stroke-linejoin="round" stroke-width="1.20481"/>
</g>
</g>
<g id="Layer-2" vectornator:layerName="Layer 2">
<path d="M94.7936 95.33" fill="none" opacity="0" stroke="#ffffff" stroke-linecap="butt" stroke-linejoin="round" stroke-width="1.20481"/>
<g opacity="1">
<path d="M93.8962 97.1154C93.8962 97.1154 81.8315 62.5868 51.6261 54.5225" fill="none" opacity="1" stroke="#ffffff" stroke-linecap="butt" stroke-linejoin="round" stroke-width="2"/>
<path d="M90.8126 96.7782C90.8126 95.3918 91.9365 94.2679 93.3229 94.2679C94.7094 94.2679 95.8333 95.3918 95.8333 96.7782C95.8333 98.1646 94.7094 99.2886 93.3229 99.2886C91.9365 99.2886 90.8126 98.1646 90.8126 96.7782Z" fill="#ffffff" fill-rule="nonzero" opacity="1" stroke="#ffffff" stroke-linecap="butt" stroke-linejoin="round" stroke-width="2"/>
<path d="M34.0917 38.0944C33.7175 31.48 35.5973 25.9945 38.2904 25.8421C40.9836 25.6898 43.4701 30.9283 43.8444 37.5426C44.2186 44.157 39.6456 49.7949 39.6456 49.7949C39.6456 49.7949 34.4659 44.7088 34.0917 38.0944Z" fill="#f1d244" fill-rule="nonzero" opacity="1" stroke="#ffffff" stroke-linecap="butt" stroke-linejoin="round" stroke-width="2"/>
<path d="M45.2908 64.9017C45.665 71.5161 43.7852 77.0016 41.0921 77.154C38.3989 77.3063 35.9124 72.0679 35.5381 65.4535C35.1639 58.8391 39.7369 53.2012 39.7369 53.2012C39.7369 53.2012 44.9166 58.2873 45.2908 64.9017Z" fill="#f1d244" fill-rule="nonzero" opacity="1" stroke="#ffffff" stroke-linecap="butt" stroke-linejoin="round" stroke-width="2"/>
<path d="M53.0949 45.8985C59.7093 45.5243 65.1948 47.4041 65.3472 50.0973C65.4995 52.7904 60.261 55.277 53.6467 55.6512C47.0323 56.0254 41.3944 51.4524 41.3944 51.4524C41.3944 51.4524 46.4805 46.2727 53.0949 45.8985Z" fill="#f1d244" fill-rule="nonzero" opacity="1" stroke="#ffffff" stroke-linecap="butt" stroke-linejoin="round" stroke-width="2"/>
<path d="M26.2876 57.0976C19.6732 57.4718 14.1877 55.592 14.0353 52.8989C13.883 50.2057 19.1215 47.7192 25.7358 47.345C32.3502 46.9707 37.9881 51.5437 37.9881 51.5437C37.9881 51.5437 32.902 56.7234 26.2876 57.0976Z" fill="#f1d244" fill-rule="nonzero" opacity="1" stroke="#ffffff" stroke-linecap="butt" stroke-linejoin="round" stroke-width="2"/>
<path d="M53.1286 57.0164C58.0702 61.4288 60.6198 66.637 58.8232 68.649C57.0267 70.6611 51.5642 68.7152 46.6225 64.3027C41.6809 59.8903 40.9279 52.6701 40.9279 52.6701C40.9279 52.6701 48.1869 52.6039 53.1286 57.0164Z" fill="#f1d244" fill-rule="nonzero" opacity="1" stroke="#ffffff" stroke-linecap="butt" stroke-linejoin="round" stroke-width="2"/>
<path d="M26.2539 45.9797C21.3123 41.5673 18.7627 36.3592 20.5593 34.3471C22.3558 32.335 27.8183 34.2809 32.76 38.6934C37.7016 43.1059 38.4547 50.326 38.4547 50.326C38.4547 50.326 31.1956 50.3922 26.2539 45.9797Z" fill="#f1d244" fill-rule="nonzero" opacity="1" stroke="#ffffff" stroke-linecap="butt" stroke-linejoin="round" stroke-width="2"/>
<path d="M34.1729 64.9354C29.7605 69.877 24.5524 72.4266 22.5403 70.6301C20.5282 68.8335 22.4741 63.371 26.8866 58.4293C31.299 53.4877 38.5192 52.7347 38.5192 52.7347C38.5192 52.7347 38.5854 59.9937 34.1729 64.9354Z" fill="#f1d244" fill-rule="nonzero" opacity="1" stroke="#ffffff" stroke-linecap="butt" stroke-linejoin="round" stroke-width="2"/>
<path d="M45.2096 38.0608C49.622 33.1191 54.8301 30.5695 56.8422 32.3661C58.8543 34.1627 56.9084 39.6251 52.4959 44.5668C48.0835 49.5085 40.8633 50.2615 40.8633 50.2615C40.8633 50.2615 40.7971 43.0024 45.2096 38.0608Z" fill="#f1d244" fill-rule="nonzero" opacity="1" stroke="#ffffff" stroke-linecap="butt" stroke-linejoin="round" stroke-width="2"/>
<path d="M33.9493 51.9284C33.9493 48.56 36.6799 45.8294 40.0483 45.8294C43.4167 45.8294 46.1473 48.56 46.1473 51.9284C46.1473 55.2968 43.4167 58.0274 40.0483 58.0274C36.6799 58.0274 33.9493 55.2968 33.9493 51.9284Z" fill="#f1d244" fill-rule="nonzero" opacity="1" stroke="#ffffff" stroke-linecap="butt" stroke-linejoin="round" stroke-width="2"/>
</g>
</g>
</svg>
